# xmcd
#
# Track frame offsets:
#	150
#	23023
#	44447
#	60774
#	76085
#	93144
#	111398
#	130729
#	147181
#	161923
#	180642
#	205220
#
# Disc length: 2967 seconds
#
# Revision: 0
# Processed by: cddbd v1.5.2PL0 Copyright (c) Steve Scherf et al.
# Submitted via: dBpowerAMP V4.0
#
DISCID=950b950c
DTITLE=metin þentürk remi night music - masal remi night music
DYEAR=2006
DGENRE=Country
TTITLE0=masal
TTITLE1=sen bilirsin
TTITLE2=gözükarayým
TTITLE3=yalan olduk
TTITLE4=beni kandýr
TTITLE5=senden baþka
TTITLE6=akþamlar
TTITLE7=herþey yalan olmuþ
TTITLE8=olmasýn
TTITLE9=sen bir yana
TTITLE10=nefesim nefesine
TTITLE11=hata
EXTD=metin þentürk 2006 masal cd 1
EXTT0=
EXTT1=
EXTT2=
EXTT3=
EXTT4=
EXTT5=
EXTT6=
EXTT7=
EXTT8=
EXTT9=
EXTT10=
EXTT11=
PLAYORDER=
